<svg xmlns="http://www.w3.org/2000/svg" xmlns:xlink="http://www.w3.org/1999/xlink" width="27px" height="37px" viewBox="0 0 27 37" version="1.1">
    <g id="surface1">
        <path style=" stroke:none;fill-rule:nonzero;fill:rgb(255 255 255);fill-opacity:1;" d="M 26.058594 18.5 L 19.300781 8.59375 C 19.152344 8.375 18.90625 8.242188 18.644531 8.242188 L 9.039062 8.242188 C 8.777344 8.242188 8.527344 8.375 8.378906 8.59375 L 1.621094 18.5 C 1.257812 19.03125 1.640625 19.75 2.28125 19.75 L 6.808594 19.75 C 7.019531 19.75 11.554688 13.316406 13.226562 10.9375 C 13.523438 10.515625 14.152344 10.519531 14.441406 10.945312 L 14.527344 11.070312 C 14.6875 11.308594 14.6875 11.621094 14.515625 11.855469 L 9.675781 18.5 C 9.3125 19.03125 9.746094 19.75 10.390625 19.75 L 14.796875 19.75 C 15.0625 19.75 15.308594 19.621094 15.457031 19.402344 L 17.628906 16.4375 C 17.773438 16.242188 18.0625 16.246094 18.199219 16.445312 L 20.214844 19.402344 C 20.363281 19.617188 20.609375 19.75 20.871094 19.75 L 25.398438 19.75 C 26.039062 19.75 26.421875 19.03125 26.058594 18.5 Z M 26.058594 18.5 "/>
        <path style=" stroke:none;fill-rule:nonzero;fill:rgb(255 255 255);fill-opacity:1;" d="M 27.625 2.0625 L 27.066406 0.800781 C 26.914062 0.453125 26.496094 0.3125 26.164062 0.492188 L 24.445312 1.445312 C 24.3125 1.519531 24.15625 1.542969 24.003906 1.511719 L 23.757812 1.460938 C 23.644531 1.433594 23.527344 1.441406 23.417969 1.476562 L 21.714844 2.074219 C 21.667969 2.089844 21.625 2.113281 21.585938 2.140625 C 21.414062 1.960938 21.171875 1.847656 20.902344 1.847656 C 20.382812 1.847656 19.960938 2.273438 19.960938 2.792969 C 19.960938 3.152344 20.160156 3.464844 20.453125 3.625 L 19.183594 5.398438 C 19.035156 5.613281 19.035156 5.894531 19.179688 6.109375 L 21.464844 9.621094 C 21.714844 10.003906 22.273438 10.003906 22.53125 9.628906 L 27.5625 2.683594 C 27.691406 2.5 27.710938 2.265625 27.625 2.0625 Z M 23.488281 2.871094 C 23.242188 2.871094 23.046875 2.671875 23.046875 2.429688 C 23.046875 2.183594 23.246094 1.984375 23.488281 1.984375 C 23.734375 1.984375 23.929688 2.183594 23.929688 2.429688 C 23.933594 2.671875 23.734375 2.871094 23.488281 2.871094 Z M 23.488281 2.871094 "/>
        <path style=" stroke:none;fill-rule:nonzero;fill:rgb(255 255 255);fill-opacity:1;" d="M 25.222656 23.292969 L 20.46875 31.605469 C 20.339844 31.835938 20.007812 31.832031 19.882812 31.601562 L 18.777344 29.550781 C 18.648438 29.320312 18.316406 29.316406 18.191406 29.550781 L 14.3125 36.496094 C 14.1875 36.722656 13.863281 36.722656 13.734375 36.5 L 9.585938 29.472656 C 9.453125 29.242188 9.121094 29.253906 9 29.492188 L 7.945312 31.578125 C 7.824219 31.816406 7.488281 31.824219 7.355469 31.59375 L 2.546875 23.292969 C 2.417969 23.070312 2.578125 22.789062 2.835938 22.789062 L 24.929688 22.789062 C 25.1875 22.789062 25.351562 23.066406 25.222656 23.292969 Z M 25.222656 23.292969 "/>
    </g>
</svg>