<?xml version="1.0" encoding="utf-8"?>
<!-- Generator: Adobe Illustrator 26.3.1, SVG Export Plug-In . SVG Version: 6.00 Build 0)  -->
<svg version="1.1" id="Capa_1" xmlns="http://www.w3.org/2000/svg" xmlns:xlink="http://www.w3.org/1999/xlink" x="0px" y="0px"
	 viewBox="0 0 415.67 127.59" style="enable-background:new 0 0 415.67 127.59;" xml:space="preserve">
<style type="text/css">
	.st0{fill:#1B40A8;}
	.st1{fill:#42A5F6;}
	.st2{fill:#33CAFF;}
</style>
<path class="st0" d="M164.24,63.59c2.15,2.69,3.22,5.81,3.22,9.36c0,5.21-1.73,9.27-5.2,12.19c-3.46,2.92-8.43,4.38-14.9,4.38
	h-30.99c-0.67,0-1.22-0.54-1.22-1.22V30.02c0-0.67,0.54-1.22,1.22-1.22h30.3c6.18,0,10.96,1.35,14.34,4.04
	c3.38,2.69,5.07,6.53,5.07,11.51c0,3.66-0.97,6.71-2.92,9.15c-1.25,1.57-2.75,2.78-4.5,3.65c-0.91,0.45-0.88,1.77,0.05,2.18
	C160.92,60.31,162.76,61.73,164.24,63.59z M128.86,52.41c0,0.67,0.54,1.22,1.22,1.22h13.34c5.09,0,7.64-2.18,7.64-6.53
	c0-4.35-2.61-6.53-7.81-6.53h-13.17c-0.67,0-1.22,0.54-1.22,1.22V52.41z M152.43,70.89c0-2.18-0.72-3.88-2.15-5.11
	c-1.43-1.23-3.46-1.85-6.1-1.85h-14.12c-0.67,0-1.22,0.54-1.22,1.22v11.22c0,0.67,0.54,1.22,1.22,1.22h14.2
	C149.71,77.59,152.43,75.35,152.43,70.89z"/>
<path class="st0" d="M189.09,28.81c0.67,0,1.22,0.54,1.22,1.22v33.82c0,4.01,0.9,7.07,2.71,9.19c1.8,2.12,4.42,3.18,7.86,3.18
	c3.44,0,6.05-1.06,7.86-3.18c1.8-2.12,2.71-5.18,2.71-9.19V30.02c0-0.67,0.54-1.22,1.22-1.22h12.25c0.67,0,1.22,0.54,1.22,1.22
	v33.82c0,5.73-1.12,10.55-3.35,14.47c-2.23,3.92-5.28,6.87-9.15,8.85c-3.86,1.98-8.23,2.96-13.1,2.96c-4.87,0-9.16-0.97-12.88-2.92
	c-3.72-1.95-6.64-4.9-8.76-8.85c-2.12-3.95-3.18-8.79-3.18-14.51V30.02c0-0.67,0.54-1.22,1.22-1.22H189.09z"/>
<path class="st0" d="M290.27,30.02v9.25c0,0.67-0.54,1.22-1.22,1.22h-19c-0.67,0-1.22,0.54-1.22,1.22v46.6
	c0,0.67-0.54,1.22-1.22,1.22h-12.34c-0.67,0-1.22-0.54-1.22-1.22V41.7c0-0.67-0.54-1.22-1.22-1.22h-18.82
	c-0.67,0-1.22-0.54-1.22-1.22v-9.25c0-0.67,0.54-1.22,1.22-1.22h55.02C289.72,28.81,290.27,29.35,290.27,30.02z"/>
<path class="st0" d="M341.44,81.28c-1.76,2.69-4.35,4.84-7.76,6.44c-3.41,1.6-7.54,2.4-12.38,2.4c-7.29,0-13.29-1.66-17.99-4.98
	c-4.33-3.06-6.83-7.24-7.5-12.54c-0.09-0.73,0.48-1.38,1.21-1.38h14.34c0.58,0,1.08,0.42,1.19,0.99c0.36,1.83,1.17,3.3,2.44,4.42
	c1.49,1.32,3.4,1.98,5.73,1.98c2.02,0,4.11-0.52,5.28-1.55c1.17-1.03,1.76-2.4,1.77-4.12c0.01-1.55-0.52-2.83-1.59-3.86
	c-1.07-1.03-2.89-1.87-4.48-2.53c-1.59-0.66-3.79-1.45-6.6-2.36c-4.1-1.32-7.45-2.59-10.04-3.82c-2.6-1.23-4.82-3.06-6.68-5.5
	c-1.86-2.43-2.77-5.6-2.75-9.49c0.02-3.61,1.02-6.73,3-9.36c1.98-2.63,4.7-4.65,8.17-6.05c3.47-1.4,7.44-2.1,11.92-2.1
	c7.23,0,12.96,1.6,17.2,4.81c3.88,2.93,6.2,6.88,6.96,11.82c0.11,0.74-0.46,1.4-1.21,1.4h-14.63c-0.56,0-1.05-0.39-1.18-0.93
	c-0.38-1.57-1.09-2.85-2.14-3.83c-1.25-1.17-2.95-1.76-5.09-1.76c-1.84,0-3.82,0.46-4.96,1.37c-1.14,0.92-1.71,2.26-1.73,4.04
	c-0.01,1.43,0.49,2.65,1.49,3.65c1,1,2.76,1.82,4.29,2.45c1.53,0.63,3.73,1.43,6.6,2.4c4.16,1.32,7.55,2.62,10.18,3.91
	c2.63,1.29,4.88,3.16,6.77,5.62c1.88,2.46,2.81,5.67,2.79,9.62C344.09,75.64,343.2,78.59,341.44,81.28z"/>
<text transform="matrix(1 0 0 1 818.1657 1877.2224)" style="fill:#0B5DAF; font-family:'HeadingProWideTrial-HeavyItalic'; font-size:102.3262px; letter-spacing:2;">BUTSA</text>
<path class="st1" d="M690.56,2334.71H632c0,0,0,0,0,0h-25.15c-3.48,0-5.86-3.52-4.55-6.75l10.79-26.71
	c0.75-1.86,2.55-3.07,4.55-3.07h44.85c-18.95-15.91-43.39-25.5-70.08-25.5c-60.24,0-109.07,48.83-109.07,109.07
	s48.83,109.07,109.07,109.07c24.37,0,46.87-7.99,65.02-21.5H552.46c-3.48,0-5.86-3.52-4.55-6.75l10.79-26.71
	c0.75-1.86,2.55-3.07,4.55-3.07h54.1c0,0,0,0,0,0h58.55c8.5,0,16.98-6.89,18.94-15.39l0,0c1.96-8.5-3.34-15.39-11.84-15.39h-14.51
	l0,0h-88.85c-3.48,0-5.86-3.52-4.55-6.75l10.79-26.71c0.75-1.86,2.55-3.07,4.55-3.07h89.44l0,0h3.56c8.5,0,16.98-6.89,18.94-15.39
	C704.36,2341.6,699.06,2334.71,690.56,2334.71z"/>
<path class="st0" d="M90.26,63.79l-23.4-34.24c-0.52-0.75-1.37-1.21-2.28-1.21H47.94H31.31c-0.91,0-1.77,0.45-2.28,1.21L5.62,63.79
	c-1.26,1.84,0.06,4.33,2.28,4.33h15.68c0.74,0,16.45-22.24,22.24-30.47c1.03-1.46,3.2-1.44,4.21,0.03l0.29,0.43
	c0.56,0.82,0.55,1.91-0.04,2.72L33.52,63.79c-1.26,1.84,0.24,4.33,2.47,4.33h15.27c0.91,0,1.77-0.45,2.28-1.21l7.53-10.25
	c0.49-0.67,1.5-0.65,1.97,0.03l6.98,10.22c0.52,0.75,1.37,1.21,2.28,1.21h15.68C90.2,68.12,91.52,65.63,90.26,63.79z"/>
<path class="st0" d="M95.69,6.98l-1.94-4.37c-0.52-1.2-1.97-1.69-3.12-1.06l-5.95,3.29c-0.47,0.26-1.01,0.34-1.53,0.23l-0.86-0.18
	C81.9,4.8,81.5,4.83,81.12,4.95l-5.9,2.07c-0.16,0.05-0.31,0.13-0.45,0.22c-0.6-0.62-1.43-1.01-2.36-1.01
	c-1.81,0-3.27,1.47-3.27,3.27c0,1.24,0.69,2.32,1.71,2.88l-4.4,6.12c-0.51,0.75-0.51,1.72-0.01,2.47l7.91,12.13
	c0.87,1.32,2.8,1.33,3.69,0.03L95.48,9.12C95.92,8.49,95.99,7.68,95.69,6.98z M81.36,9.77c-0.85,0-1.53-0.69-1.53-1.53
	c0-0.85,0.69-1.53,1.53-1.53c0.85,0,1.53,0.69,1.53,1.53C82.9,9.08,82.21,9.77,81.36,9.77z"/>
<path class="st2" d="M87.37,80.36L70.9,109.1c-0.45,0.79-1.59,0.78-2.03-0.02L65.04,102c-0.44-0.8-1.59-0.81-2.03-0.01L49.58,126
	c-0.44,0.78-1.56,0.79-2.01,0.02l-14.36-24.3c-0.47-0.79-1.62-0.75-2.03,0.07L27.52,109c-0.42,0.82-1.58,0.85-2.04,0.06L8.82,80.36
	c-0.45-0.77,0.11-1.74,1-1.74h76.53C87.25,78.62,87.81,79.58,87.37,80.36z"/>
<path class="st0" d="M411.39,87.55l-24.75-58.82h-0.33h-15.07c-0.51,0-0.96,0.32-1.14,0.8l-22.64,58.1
	c-0.29,0.79,0.29,1.64,1.14,1.64h12.65c0.51,0,0.97-0.32,1.14-0.8l4.99-13.05h23.65l4.95,13.08c0.18,0.46,0.63,0.77,1.13,0.77h13.16
	C411.16,89.26,411.75,88.35,411.39,87.55z M371.77,63.93l6.35-16.62c0.39-1.05,1.86-1.07,2.27-0.03l6.3,16.64H371.77z"/>
</svg>
