<?xml version="1.0" encoding="UTF-8"?>
<svg xmlns="http://www.w3.org/2000/svg" xmlns:xlink="http://www.w3.org/1999/xlink" width="121px" height="37px" viewBox="0 0 120 37" version="1.1">
    <g id="surface1">
        <path style="stroke:none;fill-rule:nonzero;fill:rgb(255 255 255);fill-opacity:1;" d="M 47.414062 18.441406 C 48.035156 19.21875 48.34375 20.121094 48.34375 21.148438 C 48.34375 22.65625 47.84375 23.832031 46.84375 24.675781 C 45.84375 25.519531 44.410156 25.941406 42.542969 25.941406 L 33.59375 25.941406 C 33.402344 25.941406 33.242188 25.785156 33.242188 25.589844 L 33.242188 8.730469 C 33.242188 8.535156 33.398438 8.375 33.59375 8.375 L 42.34375 8.375 C 44.125 8.375 45.507812 8.765625 46.480469 9.546875 C 47.457031 10.324219 47.945312 11.433594 47.945312 12.875 C 47.945312 13.933594 47.664062 14.816406 47.101562 15.523438 C 46.742188 15.976562 46.308594 16.324219 45.804688 16.578125 C 45.539062 16.707031 45.550781 17.089844 45.816406 17.207031 C 46.457031 17.492188 46.988281 17.902344 47.414062 18.441406 Z M 37.199219 15.207031 C 37.199219 15.398438 37.355469 15.558594 37.554688 15.558594 L 41.402344 15.558594 C 42.875 15.558594 43.609375 14.929688 43.609375 13.671875 C 43.609375 12.410156 42.855469 11.78125 41.355469 11.78125 L 37.554688 11.78125 C 37.359375 11.78125 37.199219 11.9375 37.199219 12.132812 Z M 44.003906 20.550781 C 44.003906 19.921875 43.796875 19.429688 43.382812 19.074219 C 42.972656 18.71875 42.386719 18.539062 41.625 18.539062 L 37.546875 18.539062 C 37.355469 18.539062 37.195312 18.695312 37.195312 18.890625 L 37.195312 22.136719 C 37.195312 22.332031 37.351562 22.492188 37.546875 22.492188 L 41.648438 22.492188 C 43.21875 22.492188 44.003906 21.84375 44.003906 20.550781 Z M 44.003906 20.550781 "/>
        <path style="stroke:none;fill-rule:nonzero;fill:rgb(255 255 255);fill-opacity:1;" d="M 54.589844 8.378906 C 54.78125 8.378906 54.941406 8.535156 54.941406 8.730469 L 54.941406 18.515625 C 54.941406 19.675781 55.199219 20.5625 55.722656 21.175781 C 56.242188 21.789062 57 22.09375 57.992188 22.09375 C 58.984375 22.09375 59.738281 21.789062 60.261719 21.175781 C 60.78125 20.5625 61.042969 19.675781 61.042969 18.515625 L 61.042969 8.730469 C 61.042969 8.535156 61.199219 8.375 61.394531 8.375 L 64.933594 8.375 C 65.125 8.375 65.285156 8.53125 65.285156 8.730469 L 65.285156 18.511719 C 65.285156 20.171875 64.960938 21.566406 64.316406 22.699219 C 63.671875 23.832031 62.792969 24.6875 61.675781 25.257812 C 60.5625 25.832031 59.300781 26.117188 57.894531 26.117188 C 56.488281 26.117188 55.25 25.835938 54.175781 25.269531 C 53.101562 24.707031 52.257812 23.851562 51.648438 22.710938 C 51.035156 21.566406 50.730469 20.167969 50.730469 18.511719 L 50.730469 8.730469 C 50.730469 8.535156 50.882812 8.375 51.082031 8.375 L 54.589844 8.375 Z M 54.589844 8.378906 "/>
        <path style="stroke:none;fill-rule:nonzero;fill:rgb(255 255 255);fill-opacity:1;" d="M 83.796875 8.730469 L 83.796875 11.40625 C 83.796875 11.597656 83.640625 11.757812 83.445312 11.757812 L 77.960938 11.757812 C 77.765625 11.757812 77.609375 11.914062 77.609375 12.109375 L 77.609375 25.59375 C 77.609375 25.785156 77.453125 25.945312 77.257812 25.945312 L 73.695312 25.945312 C 73.5 25.945312 73.34375 25.789062 73.34375 25.59375 L 73.34375 12.109375 C 73.34375 11.914062 73.1875 11.753906 72.988281 11.753906 L 67.554688 11.753906 C 67.363281 11.753906 67.203125 11.597656 67.203125 11.402344 L 67.203125 8.726562 C 67.203125 8.53125 67.359375 8.375 67.554688 8.375 L 83.441406 8.375 C 83.640625 8.378906 83.796875 8.535156 83.796875 8.730469 Z M 83.796875 8.730469 "/>
        <path style="stroke:none;fill-rule:nonzero;fill:rgb(255 255 255);fill-opacity:1;" d="M 98.570312 23.558594 C 98.0625 24.335938 97.316406 24.957031 96.332031 25.421875 C 95.347656 25.882812 94.152344 26.117188 92.757812 26.117188 C 90.652344 26.117188 88.917969 25.636719 87.5625 24.675781 C 86.3125 23.789062 85.589844 22.582031 85.398438 21.046875 C 85.371094 20.835938 85.535156 20.648438 85.746094 20.648438 L 89.886719 20.648438 C 90.054688 20.648438 90.199219 20.769531 90.230469 20.933594 C 90.335938 21.464844 90.566406 21.890625 90.933594 22.214844 C 91.363281 22.59375 91.917969 22.785156 92.589844 22.785156 C 93.171875 22.785156 93.773438 22.636719 94.113281 22.335938 C 94.449219 22.039062 94.621094 21.644531 94.625 21.144531 C 94.628906 20.695312 94.472656 20.328125 94.164062 20.027344 C 93.855469 19.730469 93.332031 19.488281 92.871094 19.296875 C 92.414062 19.105469 91.777344 18.878906 90.964844 18.613281 C 89.78125 18.230469 88.816406 17.863281 88.066406 17.507812 C 87.316406 17.152344 86.675781 16.625 86.140625 15.917969 C 85.601562 15.214844 85.339844 14.296875 85.34375 13.171875 C 85.351562 12.128906 85.640625 11.226562 86.210938 10.464844 C 86.785156 9.703125 87.570312 9.121094 88.570312 8.714844 C 89.570312 8.308594 90.71875 8.105469 92.011719 8.105469 C 94.097656 8.105469 95.753906 8.570312 96.976562 9.5 C 98.097656 10.347656 98.765625 11.488281 98.984375 12.917969 C 99.019531 13.132812 98.851562 13.324219 98.636719 13.324219 L 94.414062 13.324219 C 94.25 13.324219 94.109375 13.210938 94.074219 13.054688 C 93.964844 12.601562 93.757812 12.230469 93.453125 11.945312 C 93.09375 11.609375 92.601562 11.4375 91.984375 11.4375 C 91.453125 11.4375 90.882812 11.570312 90.554688 11.832031 C 90.222656 12.097656 90.058594 12.488281 90.054688 13.003906 C 90.050781 13.414062 90.195312 13.769531 90.484375 14.058594 C 90.773438 14.347656 91.28125 14.585938 91.722656 14.765625 C 92.164062 14.949219 92.800781 15.179688 93.628906 15.460938 C 94.828125 15.84375 95.808594 16.21875 96.566406 16.59375 C 97.328125 16.964844 97.976562 17.507812 98.519531 18.21875 C 99.0625 18.929688 99.332031 19.859375 99.328125 21 C 99.335938 21.925781 99.078125 22.78125 98.570312 23.558594 Z M 98.570312 23.558594 "/>
        <path style="stroke:none;fill-rule:nonzero;fill:rgb(255 255 255);fill-opacity:1;" d="M 26.058594 18.5 L 19.300781 8.59375 C 19.152344 8.375 18.90625 8.242188 18.644531 8.242188 L 9.039062 8.242188 C 8.777344 8.242188 8.527344 8.375 8.378906 8.59375 L 1.621094 18.5 C 1.257812 19.03125 1.640625 19.75 2.28125 19.75 L 6.808594 19.75 C 7.019531 19.75 11.554688 13.316406 13.226562 10.9375 C 13.523438 10.515625 14.152344 10.519531 14.441406 10.945312 L 14.527344 11.070312 C 14.6875 11.308594 14.6875 11.621094 14.515625 11.855469 L 9.675781 18.5 C 9.3125 19.03125 9.746094 19.75 10.390625 19.75 L 14.796875 19.75 C 15.0625 19.75 15.308594 19.621094 15.457031 19.402344 L 17.628906 16.4375 C 17.773438 16.242188 18.0625 16.246094 18.199219 16.445312 L 20.214844 19.402344 C 20.363281 19.617188 20.609375 19.75 20.871094 19.75 L 25.398438 19.75 C 26.039062 19.75 26.421875 19.03125 26.058594 18.5 Z M 26.058594 18.5 "/>
        <path style="stroke:none;fill-rule:nonzero;fill:rgb(255 255 255);fill-opacity:1;" d="M 27.625 2.0625 L 27.066406 0.800781 C 26.914062 0.453125 26.496094 0.3125 26.164062 0.492188 L 24.445312 1.445312 C 24.3125 1.519531 24.15625 1.542969 24.003906 1.511719 L 23.757812 1.460938 C 23.644531 1.433594 23.527344 1.441406 23.417969 1.476562 L 21.714844 2.074219 C 21.667969 2.089844 21.625 2.113281 21.585938 2.140625 C 21.414062 1.960938 21.171875 1.847656 20.902344 1.847656 C 20.382812 1.847656 19.960938 2.273438 19.960938 2.792969 C 19.960938 3.152344 20.160156 3.464844 20.453125 3.625 L 19.183594 5.398438 C 19.035156 5.613281 19.035156 5.894531 19.179688 6.109375 L 21.464844 9.621094 C 21.714844 10.003906 22.273438 10.003906 22.53125 9.628906 L 27.5625 2.683594 C 27.691406 2.5 27.710938 2.265625 27.625 2.0625 Z M 23.488281 2.871094 C 23.242188 2.871094 23.046875 2.671875 23.046875 2.429688 C 23.046875 2.183594 23.246094 1.984375 23.488281 1.984375 C 23.734375 1.984375 23.929688 2.183594 23.929688 2.429688 C 23.933594 2.671875 23.734375 2.871094 23.488281 2.871094 Z M 23.488281 2.871094 "/>
        <path style="stroke:none;fill-rule:nonzero;fill:rgb(255 255 255);fill-opacity:1;" d="M 25.222656 23.292969 L 20.46875 31.605469 C 20.339844 31.835938 20.007812 31.832031 19.882812 31.601562 L 18.777344 29.550781 C 18.648438 29.320312 18.316406 29.316406 18.191406 29.550781 L 14.3125 36.496094 C 14.1875 36.722656 13.863281 36.722656 13.734375 36.5 L 9.585938 29.472656 C 9.453125 29.242188 9.121094 29.253906 9 29.492188 L 7.945312 31.578125 C 7.824219 31.816406 7.488281 31.824219 7.355469 31.59375 L 2.546875 23.292969 C 2.417969 23.070312 2.578125 22.789062 2.835938 22.789062 L 24.929688 22.789062 C 25.1875 22.789062 25.351562 23.066406 25.222656 23.292969 Z M 25.222656 23.292969 "/>
        <path style="stroke:none;fill-rule:nonzero;fill:rgb(255 255 255);fill-opacity:1;" d="M 118.765625 25.371094 L 111.621094 8.355469 L 107.171875 8.355469 C 107.027344 8.355469 106.894531 8.449219 106.84375 8.585938 L 100.308594 25.394531 C 100.226562 25.625 100.390625 25.871094 100.636719 25.871094 L 104.289062 25.871094 C 104.4375 25.871094 104.570312 25.777344 104.617188 25.636719 L 106.058594 21.863281 L 112.886719 21.863281 L 114.316406 25.648438 C 114.367188 25.78125 114.496094 25.871094 114.640625 25.871094 L 118.441406 25.871094 C 118.699219 25.867188 118.867188 25.605469 118.765625 25.371094 Z M 107.328125 18.539062 L 109.160156 13.730469 C 109.273438 13.425781 109.695312 13.421875 109.816406 13.722656 L 111.632812 18.535156 L 107.328125 18.535156 Z M 107.328125 18.539062 "/>
    </g>
</svg>
